# xmcd CD database file
#
# Track frame offsets:
#	182
#	15640
#	40917
#	59397
#	75715
#	108245
#	121870
#	144707
#	160022
#	192770
#	207290
#	225477
#
# Disc length: 3257 seconds
#
# Revision: 3
# Processed by: cddbd v1.4PL0 Copyright (c) Steve Scherf et al.
# Submitted via: CDex 1.50beta9
#
DISCID=950cb70c
DTITLE=Louis Armstrong - Portrait 04 - Big Mama's Back In Town
DYEAR=1994
DGENRE=Jazz
TTITLE0=Jeepers Creepers
TTITLE1=Struttin' With Some Barbecue
TTITLE2=(Up A) Lazy River
TTITLE3=Stompin' At The Savoy
TTITLE4='S Wonderfull
TTITLE5=Big Mama's Back In Town
TTITLE6=The Whiffenpoof Song
TTITLE7=St. Louis Blues
TTITLE8=Twelfth Street Rag
TTITLE9=Old Man Mose
TTITLE10=Since I Fell For You
TTITLE11=Rockin' Chair
EXTD=YEAR: 1994
EXTT0=
EXTT1=
EXTT2=
EXTT3=
EXTT4=
EXTT5=
EXTT6=
EXTT7=
EXTT8=
EXTT9=
EXTT10=
EXTT11=
PLAYORDER=
